<svg width="80" height="80" viewBox="0 0 80 80" fill="none" xmlns="http://www.w3.org/2000/svg">
<g clip-path="url(#clip0)">
<path d="M80 20.2491V21.292H0V20.2491C0 18.4214 0.268281 16.6036 0.796406 14.8538L2.62438 8.79687C2.99953 7.55375 4.14469 6.70312 5.44328 6.70312H74.5567C75.8552 6.70312 77.0003 7.55375 77.3756 8.79672L79.2036 14.8536C79.7317 16.6038 80 18.4216 80 20.2491Z" fill="#C2C7D5"/>
<path d="M79.2037 14.8538L77.3757 8.79687C77.0005 7.55375 75.8554 6.70312 74.5568 6.70312H66.8396C68.138 6.70312 69.2832 7.55375 69.6585 8.79687L71.4865 14.8538C72.0146 16.6034 72.2829 18.4213 72.2829 20.2491V21.292H80.0001V20.2491C80.0001 18.4216 79.7318 16.6038 79.2037 14.8538Z" fill="#C8CDDA"/>
<path d="M76.2994 73.2967H3.70063C1.65688 73.2967 0 71.6398 0 69.596V19.8637C0 17.8198 1.65688 16.1631 3.70063 16.1631H76.2992C78.3431 16.1631 79.9998 17.82 79.9998 19.8637V69.5962C80 71.6398 78.3431 73.2967 76.2994 73.2967Z" fill="#EBEDF2"/>
<path d="M76.2994 16.1631H71.7991V68.3103C71.7991 69.1814 71.0928 69.8876 70.2217 69.8876H3.70063C1.65688 69.8875 0 68.2308 0 66.1868V69.5962C0 71.6401 1.65688 73.2968 3.70063 73.2968H68.0981H76.2992C78.3431 73.2968 79.9998 71.64 79.9998 69.5962V66.1868V19.8639C80 17.8198 78.3431 16.1631 76.2994 16.1631Z" fill="#D0D4DE"/>
<path d="M53.0983 66.6969C64.862 66.6969 74.3983 57.1606 74.3983 45.3969C74.3983 33.6333 64.862 24.0969 53.0983 24.0969C41.3347 24.0969 31.7983 33.6333 31.7983 45.3969C31.7983 57.1606 41.3347 66.6969 53.0983 66.6969Z" fill="#4D5C80"/>
<path d="M23.0293 24.0967H7.08105C6.26433 24.0967 5.60229 24.7587 5.60229 25.5754V41.5237C5.60229 42.3404 6.26433 43.0025 7.08105 43.0025H23.0293C23.846 43.0025 24.5081 42.3404 24.5081 41.5237V25.5754C24.5081 24.7587 23.846 24.0967 23.0293 24.0967Z" fill="#4285F4"/>
<path d="M20.595 55.8132H9.51542C9.15245 55.8132 8.80683 55.9684 8.56558 56.2398L5.92323 59.2125C5.71651 59.4451 5.60229 59.7454 5.60229 60.0567V65.51C5.60229 66.2118 6.1712 66.7807 6.87308 66.7807H23.2374C23.9393 66.7807 24.5082 66.2118 24.5082 65.51V60.0567C24.5082 59.7454 24.394 59.4451 24.1873 59.2125L21.545 56.2398C21.3035 55.9685 20.9579 55.8132 20.595 55.8132Z" fill="#C2C7D5"/>
<path d="M11.5862 58.9331C10.9293 58.9331 10.397 59.4656 10.397 60.1223V63.122C10.397 63.7789 10.9295 64.3114 11.5862 64.3114C12.2429 64.3114 12.7754 63.7789 12.7754 63.122V60.1223C12.7756 59.4655 12.2431 58.9331 11.5862 58.9331Z" fill="white"/>
<path d="M18.5237 58.9331C17.8668 58.9331 17.3345 59.4656 17.3345 60.1223V63.122C17.3345 63.7789 17.867 64.3114 18.5237 64.3114C19.1804 64.3114 19.7129 63.7789 19.7129 63.122V60.1223C19.7129 59.4655 19.1804 58.9331 18.5237 58.9331Z" fill="white"/>
<path d="M74.3984 44.2068H68.7573C68.177 36.4941 62.0009 30.3179 54.2882 29.7375V24.0964C54.2882 23.4396 53.7559 22.9072 53.099 22.9072C52.4421 22.9072 51.9096 23.4397 51.9096 24.0964V29.7375C44.197 30.3179 38.0207 36.4939 37.4404 44.2068H31.7993C31.1425 44.2068 30.6101 44.7393 30.6101 45.3961C30.6101 46.053 31.1426 46.5854 31.7993 46.5854H37.4404C38.0207 54.2982 44.197 60.4743 51.9096 61.0546V66.6957C51.9096 67.3525 52.442 67.8849 53.099 67.8849C53.7561 67.8849 54.2882 67.3524 54.2882 66.6957V61.0546C62.0011 60.4743 68.1772 54.2982 68.7573 46.5854H74.3984C75.0553 46.5854 75.5876 46.0529 75.5876 45.3961C75.5876 44.7393 75.0553 44.2068 74.3984 44.2068ZM51.9095 32.1274V37.0111C48.1892 37.5364 45.239 40.4865 44.7137 44.2069H39.83C40.399 37.8071 45.5098 32.6964 51.9095 32.1274ZM51.9095 58.6649C45.5098 58.0958 40.399 52.985 39.83 46.5854H44.7139C45.2392 50.3057 48.1892 53.2558 51.9096 53.7811V58.6649H51.9095ZM53.0989 51.4877C49.74 51.4877 47.0073 48.755 47.0073 45.3961C47.0073 42.0372 49.7401 39.3046 53.0989 39.3046C56.4578 39.3046 59.1904 42.0372 59.1904 45.3961C59.1904 48.7552 56.4576 51.4877 53.0989 51.4877ZM54.2881 58.6649V53.7811C58.0084 53.2558 60.9586 50.3058 61.4839 46.5854H66.3676C65.7984 52.985 60.6878 58.0958 54.2881 58.6649ZM61.4839 44.2068C60.9586 40.4865 58.0084 37.5363 54.2881 37.011V32.1272C60.6878 32.6963 65.7984 37.8071 66.3675 44.2068H61.4839Z" fill="#DFEAEF"/>
<path d="M18.7099 32.8239C18.5148 32.4047 18.0942 32.1365 17.6318 32.1365H15.0549L18.2931 28.4245C18.7229 27.928 18.6687 27.1769 18.1721 26.747C17.6754 26.3172 16.9243 26.3715 16.4946 26.868L11.5788 32.5476C11.2743 32.8997 11.2029 33.397 11.3965 33.8203C11.5899 34.2437 12.0127 34.5151 12.4782 34.5151H15.0551L11.5681 38.6878C11.1452 39.1904 11.2101 39.9408 11.7127 40.3634C11.9357 40.5509 12.2074 40.6425 12.4776 40.6425C12.8165 40.6425 13.1532 40.4984 13.3884 40.2187L18.542 34.0912C18.8396 33.7375 18.9053 33.2431 18.7099 32.8239Z" fill="white"/>
<path d="M74.3983 44.2068H71.7991V46.5854H74.3983C75.0551 46.5854 75.5875 46.0529 75.5875 45.3962C75.5875 44.7393 75.0551 44.2068 74.3983 44.2068Z" fill="#BFCFD6"/>
</g>
<defs>
<clipPath id="clip0">
<rect width="80" height="80" fill="white"/>
</clipPath>
</defs>
</svg>
